<?xml version="1.0" standalone="no"?>
<!DOCTYPE svg PUBLIC "-//W3C//DTD SVG 20010904//EN"
 "http://www.w3.org/TR/2001/REC-SVG-20010904/DTD/svg10.dtd">
<svg version="1.0" xmlns="http://www.w3.org/2000/svg"
 width="512.000000pt" height="512.000000pt" viewBox="0 0 512.000000 512.000000"
 preserveAspectRatio="xMidYMid meet">

<g transform="translate(0.000000,512.000000) scale(0.100000,-0.100000)"
fill="#208885" stroke="none">
<path d="M1035 4602 l-40 -7 0 -385 c0 -289 3 -402 14 -455 43 -219 144 -415
295 -574 34 -35 120 -107 191 -161 117 -87 263 -225 323 -304 13 -17 26 -26
31 -20 5 5 44 54 88 109 176 222 403 417 686 589 34 20 33 21 -34 165 -251
535 -696 922 -1181 1027 -79 17 -308 27 -373 16z"/>
<path d="M578 4428 c-313 -210 -517 -583 -567 -1040 -49 -441 76 -962 327
-1366 246 -396 615 -689 997 -790 72 -19 225 -43 233 -37 2 2 -6 34 -17 71
-90 299 -62 670 76 1013 45 114 45 115 28 145 -69 120 -176 233 -340 356 -260
196 -414 386 -517 639 -89 218 -108 347 -108 759 0 186 -4 312 -9 312 -5 0
-52 -28 -103 -62z"/>
<path d="M3557 3414 c-844 -127 -1572 -764 -1734 -1515 -28 -128 -25 -393 5
-514 13 -49 26 -96 31 -103 6 -10 74 -1 322 43 173 31 341 62 375 70 196 45
406 165 545 312 87 91 143 173 219 323 99 196 177 307 300 430 163 164 364
286 580 354 46 15 221 52 389 82 167 30 306 56 308 58 11 11 -127 152 -204
210 -152 114 -329 193 -531 237 -130 28 -461 35 -605 13z"/>
<path d="M4694 2610 c-177 -31 -355 -67 -395 -80 -174 -52 -337 -150 -468
-281 -96 -97 -167 -200 -246 -359 -80 -161 -153 -267 -264 -382 -115 -120
-230 -208 -361 -277 -183 -96 -282 -124 -675 -191 -132 -23 -246 -43 -253 -46
-21 -6 1 -37 85 -120 248 -246 622 -376 1033 -361 256 10 505 67 744 171 857
370 1374 1204 1185 1909 -18 66 -24 77 -43 76 -11 0 -166 -27 -342 -59z"/>
</g>
</svg>
