<?xml version="1.0" standalone="no"?>
<!DOCTYPE svg PUBLIC "-//W3C//DTD SVG 20010904//EN"
 "http://www.w3.org/TR/2001/REC-SVG-20010904/DTD/svg10.dtd">
<svg version="1.0" xmlns="http://www.w3.org/2000/svg"
 width="512.000000pt" height="512.000000pt" viewBox="0 0 512.000000 512.000000"
 preserveAspectRatio="xMidYMid meet">

<g transform="translate(0.000000,512.000000) scale(0.100000,-0.100000)"
fill="#ffff" stroke="none">
<path d="M1880 5113 c-543 -41 -1047 -284 -1380 -666 -471 -539 -618 -1317
-399 -2111 201 -725 700 -1398 1359 -1832 675 -444 1443 -602 2130 -440 631
149 1135 581 1375 1176 152 376 192 828 114 1276 -183 1057 -997 2023 -2039
2419 -365 139 -798 205 -1160 178z m-1072 -853 c81 -109 190 -255 242 -326
291 -393 537 -612 886 -787 192 -96 358 -155 858 -307 93 -28 212 -69 265 -91
727 -307 1193 -925 1375 -1824 13 -66 27 -147 31 -180 4 -33 9 -69 11 -80 8
-33 -42 29 -291 360 -273 364 -419 534 -572 666 -153 131 -269 206 -458 299
-186 92 -348 151 -605 225 -389 111 -532 164 -711 265 -186 105 -309 197 -453
338 -348 342 -580 794 -695 1354 -16 79 -32 166 -35 193 -4 28 -9 63 -12 79
-4 20 -3 26 5 21 7 -4 78 -96 159 -205z"/>
</g>
</svg>
